<svg id="Layer_1" data-name="Layer 1" 
  xmlns="http://www.w3.org/2000/svg" width="47.76" height="54.22" viewBox="0 0 47.76 54.22">
  <title>user-no-image</title>
  <path d="M298.2,448.24c-7.44,0-14.88,0-22.31,0-1.14,0-1.58-.31-1.48-1.48a14.73,14.73,0,0,1,.5-3.31,4.56,4.56,0,0,1,2.69-3,50.53,50.53,0,0,0,9.84-5.45,6.88,6.88,0,0,0,2.21-2.17c0.86-1.57,1.28-3.1,0-4.77a15.55,15.55,0,0,1-2.66-7.37,10.84,10.84,0,0,0-.83-2.86,23.58,23.58,0,0,1-2.44-10.3c0.17-7.18,4.86-12.31,12-13.31a16.31,16.31,0,0,1,10.86,2.05c4.81,2.84,7,8.25,6,14.44a25.35,25.35,0,0,1-1.92,6.41,16.87,16.87,0,0,0-1.31,4.45,15.87,15.87,0,0,1-2.85,7c-1,1.33-.38,2.69.21,4A6.44,6.44,0,0,0,309,435a43.16,43.16,0,0,0,9.19,5.15c2.48,1,3.47,2.76,3.77,5.19,0.36,2.93.37,2.93-2.56,2.93H298.2Zm-11.34-33.68c0.13,1.59.2,3.19,0.39,4.77,0.4,3.28,1.15,6.44,3.22,9.15a6.56,6.56,0,0,0,5,2.73,36.72,36.72,0,0,0,5.74,0,6.25,6.25,0,0,0,4.54-2.35,14.11,14.11,0,0,0,2.73-5.41,39.48,39.48,0,0,0,1.08-11.53,9.68,9.68,0,0,0-.78-3.37c-2.89-6.92-13-8.77-18.67-3.42C287.37,407.7,286.68,411,286.86,414.55Zm18.72,15.28a7.27,7.27,0,0,1-3.75,1.76,28.77,28.77,0,0,1-7.52-.08,5.69,5.69,0,0,1-1.48-.46c-0.57-.27-1.19-1-1.63-0.86-0.7.18-.33,1.16-0.57,1.77a7.31,7.31,0,0,1-3.21,3.6c-0.9.55-.7,1,0,1.5a8.85,8.85,0,0,0,2.83,1.53,27.06,27.06,0,0,0,12.67.83,13,13,0,0,0,6.12-2.25c0.75-.57,1-1,0-1.67A6.28,6.28,0,0,1,305.58,429.83Zm-9,12.21c4.85,0,8.07-.42,11.13-1.78a9.36,9.36,0,0,0,3.39-2.42c0.27-.32.55-0.66,0-1-0.38-.23-0.73-0.71-1.21-0.09a7.86,7.86,0,0,1-4.49,2.58,27.72,27.72,0,0,1-13.53.2,8.66,8.66,0,0,1-5.12-2.66c-0.5-.61-0.83-0.37-1.28-0.07-0.68.45-.23,0.83,0.09,1.15a10,10,0,0,0,1.55,1.31A18.43,18.43,0,0,0,296.55,442Z" 
      transform="translate(-274.39 -394.04)"/>
</svg>
